<?xml version="1.0" encoding="UTF-8" standalone="no"?>
<!DOCTYPE svg PUBLIC "-//W3C//DTD SVG 1.0//EN" "http://www.w3.org/TR/2001/PR-SVG-20010719/DTD/svg10.dtd">
<svg width="51cm" height="25cm" viewBox="655 67 1005 495" xmlns="http://www.w3.org/2000/svg" xmlns:xlink="http://www.w3.org/1999/xlink">
  <g>
    <rect style="fill: #ffffff" x="1121.84" y="282.082" width="47.7" height="36"/>
    <rect style="fill: none; fill-opacity:0; stroke-width: 1; stroke: #000000" x="1121.84" y="282.082" width="47.7" height="36"/>
    <text font-size="12.8" style="fill: #000000;text-anchor:middle;font-family:sans-serif;font-style:normal;font-weight:normal" x="1145.69" y="304.882">
      <tspan x="1145.69" y="304.882">Fiera</tspan>
    </text>
    <line style="fill: none; fill-opacity:0; stroke-width: 0.5; stroke: #000000" x1="1131.84" y1="307.532" x2="1159.54" y2="307.532"/>
  </g>
  <g>
    <rect style="fill: #ffffff" x="1493.94" y="290.544" width="58.75" height="36"/>
    <rect style="fill: none; fill-opacity:0; stroke-width: 1; stroke: #000000" x="1493.94" y="290.544" width="58.75" height="36"/>
    <text font-size="12.8" style="fill: #000000;text-anchor:middle;font-family:sans-serif;font-style:normal;font-weight:normal" x="1523.32" y="313.344">
      <tspan x="1523.32" y="313.344">Evento</tspan>
    </text>
    <line style="fill: none; fill-opacity:0; stroke-width: 0.5; stroke: #000000" x1="1503.94" y1="315.994" x2="1542.69" y2="315.994"/>
  </g>
  <g>
    <polygon style="fill: #ffffff" points="1332.08,283.998 1383.27,305.546 1332.08,327.093 1280.9,305.546 "/>
    <polygon style="fill: none; fill-opacity:0; stroke-width: 1; stroke: #000000" points="1332.08,283.998 1383.27,305.546 1332.08,327.093 1280.9,305.546 "/>
    <polygon style="fill: none; fill-opacity:0; stroke-width: 1; stroke: #000000" points="1332.08,283.998 1383.27,305.546 1332.08,327.093 1280.9,305.546 "/>
  </g>
  <text font-size="12.8" style="fill: #000000;text-anchor:start;font-family:sans-serif;font-style:normal;font-weight:normal" x="1288.29" y="308.858">
    <tspan x="1288.29" y="308.858">Appartenenza</tspan>
  </text>
  <line style="fill: none; fill-opacity:0; stroke-width: 1; stroke: #000000" x1="1169.54" y1="300.082" x2="1280.9" y2="305.546"/>
  <line style="fill: none; fill-opacity:0; stroke-width: 1; stroke: #000000" x1="1383.27" y1="305.546" x2="1493.94" y2="308.544"/>
  <g>
    <polygon style="fill: #ffffff" points="1529.86,380.382 1581.04,401.93 1529.86,423.477 1478.67,401.93 "/>
    <polygon style="fill: none; fill-opacity:0; stroke-width: 1; stroke: #000000" points="1529.86,380.382 1581.04,401.93 1529.86,423.477 1478.67,401.93 "/>
    <polygon style="fill: none; fill-opacity:0; stroke-width: 1; stroke: #000000" points="1529.86,380.382 1581.04,401.93 1529.86,423.477 1478.67,401.93 "/>
  </g>
  <text font-size="12.8" style="fill: #000000;text-anchor:start;font-family:sans-serif;font-style:normal;font-weight:normal" x="1491.67" y="406.664">
    <tspan x="1491.67" y="406.664">Svolgimento</tspan>
  </text>
  <line style="fill: none; fill-opacity:0; stroke-width: 1; stroke: #000000" x1="1526.22" y1="326.544" x2="1529.86" y2="380.382"/>
  <g>
    <rect style="fill: #ffffff" x="1488.45" y="469.246" width="77.65" height="36"/>
    <rect style="fill: none; fill-opacity:0; stroke-width: 1; stroke: #000000" x="1488.45" y="469.246" width="77.65" height="36"/>
    <text font-size="12.8" style="fill: #000000;text-anchor:middle;font-family:sans-serif;font-style:normal;font-weight:normal" x="1527.28" y="492.046">
      <tspan x="1527.28" y="492.046">Padiglione</tspan>
    </text>
    <line style="fill: none; fill-opacity:0; stroke-width: 0.5; stroke: #000000" x1="1498.45" y1="494.696" x2="1556.1" y2="494.696"/>
  </g>
  <line style="fill: none; fill-opacity:0; stroke-width: 1; stroke: #000000" x1="1530.34" y1="423.788" x2="1531.35" y2="469.246"/>
  <g>
    <rect style="fill: #ffffff" x="981.358" y="108.08" width="56.65" height="36"/>
    <rect style="fill: none; fill-opacity:0; stroke-width: 1; stroke: #000000" x="981.358" y="108.08" width="56.65" height="36"/>
    <text font-size="12.8" style="fill: #000000;text-anchor:middle;font-family:sans-serif;font-style:normal;font-weight:normal" x="1009.68" y="130.88">
      <tspan x="1009.68" y="130.88">Tariffa</tspan>
    </text>
    <line style="fill: none; fill-opacity:0; stroke-width: 0.5; stroke: #000000" x1="991.358" y1="133.53" x2="1028.01" y2="133.53"/>
  </g>
  <g>
    <rect style="fill: #ffffff" x="836.116" y="280.534" width="65.8" height="36"/>
    <rect style="fill: none; fill-opacity:0; stroke-width: 1; stroke: #000000" x="836.116" y="280.534" width="65.8" height="36"/>
    <text font-size="12.8" style="fill: #000000;text-anchor:middle;font-family:sans-serif;font-style:normal;font-weight:normal" x="869.016" y="303.334">
      <tspan x="869.016" y="303.334">Biglietto</tspan>
    </text>
    <line style="fill: none; fill-opacity:0; stroke-width: 0.5; stroke: #000000" x1="846.116" y1="305.984" x2="891.916" y2="305.984"/>
  </g>
  <g>
    <rect style="fill: #ffffff" x="843.698" y="482.544" width="58.55" height="36"/>
    <rect style="fill: none; fill-opacity:0; stroke-width: 1; stroke: #000000" x="843.698" y="482.544" width="58.55" height="36"/>
    <text font-size="12.8" style="fill: #000000;text-anchor:middle;font-family:sans-serif;font-style:normal;font-weight:normal" x="872.973" y="505.344">
      <tspan x="872.973" y="505.344">Cliente</tspan>
    </text>
    <line style="fill: none; fill-opacity:0; stroke-width: 0.5; stroke: #000000" x1="853.698" y1="507.994" x2="892.248" y2="507.994"/>
  </g>
  <g>
    <polygon style="fill: #ffffff" points="1526.16,130.171 1557.3,149.33 1526.16,168.488 1495.03,149.33 "/>
    <polygon style="fill: none; fill-opacity:0; stroke-width: 1; stroke: #000000" points="1526.16,130.171 1557.3,149.33 1526.16,168.488 1495.03,149.33 "/>
    <polygon style="fill: none; fill-opacity:0; stroke-width: 1; stroke: #000000" points="1526.16,130.171 1557.3,149.33 1526.16,168.488 1495.03,149.33 "/>
  </g>
  <text font-size="12.8" style="fill: #000000;text-anchor:start;font-family:sans-serif;font-style:normal;font-weight:normal" x="1505.39" y="153.042">
    <tspan x="1505.39" y="153.042">Prezzo</tspan>
  </text>
  <g>
    <polygon style="fill: #ffffff" points="872.337,155.794 927.086,185.293 872.337,214.793 817.588,185.293 "/>
    <polygon style="fill: none; fill-opacity:0; stroke-width: 1; stroke: #000000" points="872.337,155.794 927.086,185.293 872.337,214.793 817.588,185.293 "/>
    <polygon style="fill: none; fill-opacity:0; stroke-width: 1; stroke: #000000" points="872.337,155.794 927.086,185.293 872.337,214.793 817.588,185.293 "/>
  </g>
  <text font-size="12.8" style="fill: #000000;text-anchor:start;font-family:sans-serif;font-style:normal;font-weight:normal" x="835.848" y="187.989">
    <tspan x="835.848" y="187.989">Applicazione</tspan>
  </text>
  <g>
    <polygon style="fill: #ffffff" points="868.984,382.252 903.055,400.565 868.984,418.878 834.912,400.565 "/>
    <polygon style="fill: none; fill-opacity:0; stroke-width: 1; stroke: #000000" points="868.984,382.252 903.055,400.565 868.984,418.878 834.912,400.565 "/>
    <polygon style="fill: none; fill-opacity:0; stroke-width: 1; stroke: #000000" points="868.984,382.252 903.055,400.565 868.984,418.878 834.912,400.565 "/>
  </g>
  <text font-size="12.8" style="fill: #000000;text-anchor:start;font-family:sans-serif;font-style:normal;font-weight:normal" x="843.692" y="404.616">
    <tspan x="843.692" y="404.616">Acquisto</tspan>
  </text>
  <line style="fill: none; fill-opacity:0; stroke-width: 1; stroke: #000000" x1="872.792" y1="280.534" x2="872.338" y2="214.792"/>
  <polyline style="fill: none; fill-opacity:0; stroke-width: 1; stroke: #000000" points="872.338,155.794 875.09,155.794 875.09,126.08 981.358,126.08 "/>
  <polyline style="fill: none; fill-opacity:0; stroke-width: 1; stroke: #000000" points="1038.01,126.08 1058.51,126.08 1058.51,106.08 1526.16,106.08 1526.16,130.171 "/>
  <line style="fill: none; fill-opacity:0; stroke-width: 1; stroke: #000000" x1="1526.16" y1="168.488" x2="1526.22" y2="290.544"/>
  <line style="fill: none; fill-opacity:0; stroke-width: 1; stroke: #000000" x1="872.792" y1="316.534" x2="868.984" y2="382.252"/>
  <line style="fill: none; fill-opacity:0; stroke-width: 1; stroke: #000000" x1="870.564" y1="418.588" x2="876.174" y2="482.544"/>
  <g>
    <line style="fill: none; fill-opacity:0; stroke-width: 2; stroke: #000000" x1="1119.84" y1="287.509" x2="1103.75" y2="279.686"/>
    <ellipse style="fill: #ffffff" cx="1106.94" cy="281.238" rx="3.5483" ry="3.5483"/>
    <ellipse style="fill: none; fill-opacity:0; stroke-width: 2; stroke: #000000" cx="1106.94" cy="281.238" rx="3.5483" ry="3.5483"/>
    <text font-size="12.7998" style="fill: #000000;text-anchor:start;font-family:monospace;font-style:normal;font-weight:normal" x="1103.69" y="277.476">Nome</text>
  </g>
  <g>
    <line style="fill: none; fill-opacity:0; stroke-width: 2; stroke: #000000" x1="1171.53" y1="294.439" x2="1188.22" y2="290.796"/>
    <ellipse style="fill: #ffffff" cx="1184.71" cy="291.561" rx="3.58561" ry="3.58561"/>
    <ellipse style="fill: none; fill-opacity:0; stroke-width: 2; stroke: #000000" cx="1184.71" cy="291.561" rx="3.58561" ry="3.58561"/>
    <text font-size="12.7998" style="fill: #000000;text-anchor:start;font-family:monospace;font-style:normal;font-weight:normal" x="1189.77" y="295.6">Luogo</text>
  </g>
  <g>
    <line style="fill: none; fill-opacity:0; stroke-width: 2; stroke: #000000" x1="1171.53" y1="286.499" x2="1184.25" y2="279.814"/>
    <ellipse style="fill: #ffffff" cx="1181.11" cy="281.465" rx="3.5483" ry="3.5483"/>
    <ellipse style="fill: none; fill-opacity:0; stroke-width: 2; stroke: #000000" cx="1181.11" cy="281.465" rx="3.5483" ry="3.5483"/>
    <text font-size="12.7998" style="fill: #000000;text-anchor:start;font-family:monospace;font-style:normal;font-weight:normal" x="1186.06" y="283.31">Città</text>
  </g>
  <g>
    <line style="fill: none; fill-opacity:0; stroke-width: 2; stroke: #000000" x1="1148.22" y1="320.083" x2="1151.94" y2="349.524"/>
    <ellipse style="fill: #ffffff" cx="1151.5" cy="346.004" rx="3.5483" ry="3.5483"/>
    <ellipse style="fill: none; fill-opacity:0; stroke-width: 2; stroke: #000000" cx="1151.5" cy="346.004" rx="3.5483" ry="3.5483"/>
    <text font-size="12.7998" style="fill: #000000;text-anchor:start;font-family:monospace;font-style:normal;font-weight:normal" x="1141.92" y="362.826">Data Inizio</text>
  </g>
  <g>
    <line style="fill: none; fill-opacity:0; stroke-width: 2; stroke: #000000" x1="1159.51" y1="320.091" x2="1173.58" y2="340.474"/>
    <path style="fill: #000000" d="M 1173.58 340.474 C 1171.53,341.895 1168.05,341.258 1166.63,339.201 C 1165.21,337.144 1165.84,333.666 1167.9,332.246 C 1169.96,330.825 1173.44,331.461 1174.86,333.518 C 1176.28,335.576 1175.64,339.053 1173.58,340.474z"/>
    <path style="fill: none; fill-opacity:0; stroke-width: 2; stroke: #000000" d="M 1173.58 340.474 C 1171.53,341.895 1168.05,341.258 1166.63,339.201 C 1165.21,337.144 1165.84,333.666 1167.9,332.246 C 1169.96,330.825 1173.44,331.461 1174.86,333.518 C 1176.28,335.576 1175.64,339.053 1173.58,340.474"/>
  </g>
  <text font-size="12.8" style="fill: #000000;text-anchor:start;font-family:sans-serif;font-style:normal;font-weight:normal" x="1166.62" y="329.766">
    <tspan x="1166.62" y="329.766">Id</tspan>
  </text>
  <g>
    <line style="fill: none; fill-opacity:0; stroke-width: 2; stroke: #000000" x1="1119.83" y1="312.753" x2="1063.75" y2="340.238"/>
    <ellipse style="fill: #ffffff" cx="1066.94" cy="338.676" rx="3.5483" ry="3.5483"/>
    <ellipse style="fill: none; fill-opacity:0; stroke-width: 2; stroke: #000000" cx="1066.94" cy="338.676" rx="3.5483" ry="3.5483"/>
    <text font-size="12.7998" style="fill: #000000;text-anchor:start;font-family:monospace;font-style:normal;font-weight:normal" x="1059.99" y="353.38">Data Fine</text>
  </g>
  <g>
    <line style="fill: none; fill-opacity:0; stroke-width: 2; stroke: #000000" x1="996.034" y1="106.076" x2="977.864" y2="79.446"/>
    <ellipse style="fill: #ffffff" cx="979.864" cy="82.377" rx="3.5483" ry="3.5483"/>
    <ellipse style="fill: none; fill-opacity:0; stroke-width: 2; stroke: #000000" cx="979.864" cy="82.377" rx="3.5483" ry="3.5483"/>
    <text font-size="12.7998" style="fill: #000000;text-anchor:start;font-family:monospace;font-style:normal;font-weight:normal" x="982.542" y="79.8712">Prezzo</text>
  </g>
  <g>
    <line style="fill: none; fill-opacity:0; stroke-width: 2; stroke: #000000" x1="1037.32" y1="106.077" x2="1049.41" y2="97.3212"/>
    <ellipse style="fill: #ffffff" cx="1046.54" cy="99.4018" rx="3.5483" ry="3.5483"/>
    <ellipse style="fill: none; fill-opacity:0; stroke-width: 2; stroke: #000000" cx="1046.54" cy="99.4018" rx="3.5483" ry="3.5483"/>
    <text font-size="12.7998" style="fill: #000000;text-anchor:start;font-family:monospace;font-style:normal;font-weight:normal" x="1056.5" y="100.723">Tipo</text>
  </g>
  <g>
    <path style="fill: none; fill-opacity:0; stroke-width: 2; stroke: #000000" d="M 1061.91,165.809 A 64.8493,64.8493 0 0 0 963.6,99.6874"/>
    <path style="fill: #000000" d="M 1061.91 165.809 C 1059.45,165.379 1057.42,162.486 1057.85,160.023 C 1058.28,157.56 1061.17,155.528 1063.64,155.959 C 1066.1,156.389 1068.13,159.283 1067.7,161.745 C 1067.27,164.208 1064.38,166.24 1061.91,165.809z"/>
    <path style="fill: none; fill-opacity:0; stroke-width: 2; stroke: #000000" d="M 1061.91 165.809 C 1059.45,165.379 1057.42,162.486 1057.85,160.023 C 1058.28,157.56 1061.17,155.528 1063.64,155.959 C 1066.1,156.389 1068.13,159.283 1067.7,161.745 C 1067.27,164.208 1064.38,166.24 1061.91,165.809"/>
  </g>
  <g>
    <line style="fill: none; fill-opacity:0; stroke-width: 2; stroke: #000000" x1="903.772" y1="282.155" x2="951.02" y2="259.888"/>
    <ellipse style="fill: #ffffff" cx="947.81" cy="261.401" rx="3.5483" ry="3.5483"/>
    <ellipse style="fill: none; fill-opacity:0; stroke-width: 2; stroke: #000000" cx="947.81" cy="261.401" rx="3.5483" ry="3.5483"/>
    <text font-size="12.7998" style="fill: #000000;text-anchor:start;font-family:monospace;font-style:normal;font-weight:normal" x="953.712" y="261.446">Id</text>
  </g>
  <g>
    <path style="fill: none; fill-opacity:0; stroke-width: 2; stroke: #000000" d="M 937.98,309.43 A 57.8703,57.8703 0 0 0 850.074,256.226"/>
    <path style="fill: #000000" d="M 937.98 309.43 C 935.485,309.265 933.156,306.606 933.321,304.111 C 933.485,301.617 936.145,299.287 938.639,299.452 C 941.134,299.617 943.464,302.276 943.299,304.771 C 943.134,307.265 940.475,309.595 937.98,309.43z"/>
    <path style="fill: none; fill-opacity:0; stroke-width: 2; stroke: #000000" d="M 937.98 309.43 C 935.485,309.265 933.156,306.606 933.321,304.111 C 933.485,301.617 936.145,299.287 938.639,299.452 C 941.134,299.617 943.464,302.276 943.299,304.771 C 943.134,307.265 940.475,309.595 937.98,309.43"/>
  </g>
  <g>
    <line style="fill: none; fill-opacity:0; stroke-width: 2; stroke: #000000" x1="890.644" y1="318.542" x2="908.688" y2="335.234"/>
    <ellipse style="fill: #ffffff" cx="905.945" cy="332.697" rx="3.73636" ry="3.73636"/>
    <ellipse style="fill: none; fill-opacity:0; stroke-width: 2; stroke: #000000" cx="905.945" cy="332.697" rx="3.73636" ry="3.73636"/>
    <text font-size="12.7998" style="fill: #000000;text-anchor:start;font-family:monospace;font-style:normal;font-weight:normal" x="916.4" y="340.632">Data Emissione</text>
  </g>
  <g>
    <line style="fill: none; fill-opacity:0; stroke-width: 2; stroke: #000000" x1="834.123" y1="312.624" x2="765.638" y2="340.278"/>
    <ellipse style="fill: #ffffff" cx="768.928" cy="338.949" rx="3.5483" ry="3.5483"/>
    <ellipse style="fill: none; fill-opacity:0; stroke-width: 2; stroke: #000000" cx="768.928" cy="338.949" rx="3.5483" ry="3.5483"/>
    <text font-size="12.7998" style="fill: #000000;text-anchor:start;font-family:monospace;font-style:normal;font-weight:normal" x="720.2" y="351.612">Data Convalida</text>
  </g>
  <g>
    <line style="fill: none; fill-opacity:0; stroke-width: 2; stroke: #000000" x1="892.279" y1="520.539" x2="913.608" y2="542.63"/>
    <path style="fill: #000000" d="M 913.608 542.63 C 911.81,544.366 908.275,544.304 906.538,542.506 C 904.802,540.707 904.864,537.172 906.662,535.436 C 908.461,533.7 911.996,533.762 913.732,535.56 C 915.469,537.359 915.406,540.894 913.608,542.63z"/>
    <path style="fill: none; fill-opacity:0; stroke-width: 2; stroke: #000000" d="M 913.608 542.63 C 911.81,544.366 908.275,544.304 906.538,542.506 C 904.802,540.707 904.864,537.172 906.662,535.436 C 908.461,533.7 911.996,533.762 913.732,535.56 C 915.469,537.359 915.406,540.894 913.608,542.63"/>
  </g>
  <text font-size="12.8" style="fill: #000000;text-anchor:start;font-family:sans-serif;font-style:normal;font-weight:normal" x="903.34" y="531.086">
    <tspan x="903.34" y="531.086">Codice Fiscale</tspan>
  </text>
  <g>
    <line style="fill: none; fill-opacity:0; stroke-width: 2; stroke: #000000" x1="867.819" y1="520.542" x2="864.282" y2="534.266"/>
    <ellipse style="fill: #ffffff" cx="865.168" cy="530.83" rx="3.5483" ry="3.5483"/>
    <ellipse style="fill: none; fill-opacity:0; stroke-width: 2; stroke: #000000" cx="865.168" cy="530.83" rx="3.5483" ry="3.5483"/>
    <text font-size="12.7998" style="fill: #000000;text-anchor:start;font-family:monospace;font-style:normal;font-weight:normal" x="858.612" y="544.33">Nome</text>
  </g>
  <g>
    <line style="fill: none; fill-opacity:0; stroke-width: 2; stroke: #000000" x1="855.58" y1="520.511" x2="830.262" y2="549.576"/>
    <ellipse style="fill: #ffffff" cx="832.593" cy="546.9" rx="3.5483" ry="3.5483"/>
    <ellipse style="fill: none; fill-opacity:0; stroke-width: 2; stroke: #000000" cx="832.593" cy="546.9" rx="3.5483" ry="3.5483"/>
    <text font-size="12.7998" style="fill: #000000;text-anchor:start;font-family:monospace;font-style:normal;font-weight:normal" x="833.524" y="558.788">Cognome</text>
  </g>
  <g>
    <line style="fill: none; fill-opacity:0; stroke-width: 2; stroke: #000000" x1="890.49" y1="480.552" x2="909.338" y2="459.04"/>
    <ellipse style="fill: #ffffff" cx="907" cy="461.709" rx="3.5483" ry="3.5483"/>
    <ellipse style="fill: none; fill-opacity:0; stroke-width: 2; stroke: #000000" cx="907" cy="461.709" rx="3.5483" ry="3.5483"/>
    <text font-size="12.7998" style="fill: #000000;text-anchor:start;font-family:monospace;font-style:normal;font-weight:normal" x="912.03" y="460.6">Data di nascita</text>
  </g>
  <g>
    <line style="fill: none; fill-opacity:0; stroke-width: 2; stroke: #000000" x1="904.251" y1="493.872" x2="946.836" y2="484.788"/>
    <ellipse style="fill: #ffffff" cx="943.366" cy="485.528" rx="3.5483" ry="3.5483"/>
    <ellipse style="fill: none; fill-opacity:0; stroke-width: 2; stroke: #000000" cx="943.366" cy="485.528" rx="3.5483" ry="3.5483"/>
    <text font-size="12.7998" style="fill: #000000;text-anchor:start;font-family:monospace;font-style:normal;font-weight:normal" x="947.686" y="488.898">Numero di telefono</text>
  </g>
  <g>
    <line style="fill: none; fill-opacity:0; stroke-width: 2; stroke: #000000" x1="1491.96" y1="319.051" x2="1439.31" y2="336.69"/>
    <ellipse style="fill: #ffffff" cx="1442.68" cy="335.563" rx="3.5483" ry="3.5483"/>
    <ellipse style="fill: none; fill-opacity:0; stroke-width: 2; stroke: #000000" cx="1442.68" cy="335.563" rx="3.5483" ry="3.5483"/>
    <text font-size="12.7998" style="fill: #000000;text-anchor:start;font-family:monospace;font-style:normal;font-weight:normal" x="1445.12" y="343.352">Id</text>
  </g>
  <g>
    <line style="fill: none; fill-opacity:0; stroke-width: 2; stroke: #000000" x1="1554.68" y1="313.077" x2="1568.02" y2="315.004"/>
    <ellipse style="fill: #ffffff" cx="1564.5" cy="314.496" rx="3.5483" ry="3.5483"/>
    <ellipse style="fill: none; fill-opacity:0; stroke-width: 2; stroke: #000000" cx="1564.5" cy="314.496" rx="3.5483" ry="3.5483"/>
    <text font-size="12.7998" style="fill: #000000;text-anchor:start;font-family:monospace;font-style:normal;font-weight:normal" x="1569.43" y="318.69">Nome</text>
  </g>
  <g>
    <line style="fill: none; fill-opacity:0; stroke-width: 2; stroke: #000000" x1="1554.66" y1="297.964" x2="1568.08" y2="293.434"/>
    <ellipse style="fill: #ffffff" cx="1564.72" cy="294.569" rx="3.5483" ry="3.5483"/>
    <ellipse style="fill: none; fill-opacity:0; stroke-width: 2; stroke: #000000" cx="1564.72" cy="294.569" rx="3.5483" ry="3.5483"/>
    <text font-size="12.7998" style="fill: #000000;text-anchor:start;font-family:monospace;font-style:normal;font-weight:normal" x="1569.5" y="297.12">Data Inizio</text>
  </g>
  <g>
    <line style="fill: none; fill-opacity:0; stroke-width: 2; stroke: #000000" x1="1507.68" y1="507.217" x2="1482.58" y2="532.792"/>
    <ellipse style="fill: #ffffff" cx="1485.06" cy="530.26" rx="3.5483" ry="3.5483"/>
    <ellipse style="fill: none; fill-opacity:0; stroke-width: 2; stroke: #000000" cx="1485.06" cy="530.26" rx="3.5483" ry="3.5483"/>
    <text font-size="12.7998" style="fill: #000000;text-anchor:start;font-family:monospace;font-style:normal;font-weight:normal" x="1446.01" y="541.296">Capienza</text>
  </g>
  <g>
    <line style="fill: none; fill-opacity:0; stroke-width: 2; stroke: #000000" x1="1568.09" y1="482.167" x2="1617.33" y2="476.04"/>
    <ellipse style="fill: #ffffff" cx="1613.81" cy="476.478" rx="3.5483" ry="3.5483"/>
    <ellipse style="fill: none; fill-opacity:0; stroke-width: 2; stroke: #000000" cx="1613.81" cy="476.478" rx="3.5483" ry="3.5483"/>
    <text font-size="12.7998" style="fill: #000000;text-anchor:start;font-family:monospace;font-style:normal;font-weight:normal" x="1620.73" y="480.292">Luogo</text>
  </g>
  <g>
    <line style="fill: none; fill-opacity:0; stroke-width: 2; stroke: #000000" x1="1564.03" y1="467.246" x2="1604.83" y2="445.04"/>
    <ellipse style="fill: #ffffff" cx="1601.71" cy="446.736" rx="3.5483" ry="3.5483"/>
    <ellipse style="fill: none; fill-opacity:0; stroke-width: 2; stroke: #000000" cx="1601.71" cy="446.736" rx="3.5483" ry="3.5483"/>
    <text font-size="12.7998" style="fill: #000000;text-anchor:start;font-family:monospace;font-style:normal;font-weight:normal" x="1608.37" y="449.152">Id</text>
  </g>
  <g>
    <line style="fill: none; fill-opacity:0; stroke-width: 2; stroke: #000000" x1="1568.1" y1="496.637" x2="1619.83" y2="508.538"/>
    <ellipse style="fill: #ffffff" cx="1616.37" cy="507.742" rx="3.5483" ry="3.5483"/>
    <ellipse style="fill: none; fill-opacity:0; stroke-width: 2; stroke: #000000" cx="1616.37" cy="507.742" rx="3.5483" ry="3.5483"/>
    <text font-size="12.7998" style="fill: #000000;text-anchor:start;font-family:monospace;font-style:normal;font-weight:normal" x="1621.24" y="512.224">Città</text>
  </g>
  <g>
    <path style="fill: none; fill-opacity:0; stroke-width: 2; stroke: #000000" d="M 1575.83,524.538 A 51.2674,51.2674 0 0 0 1571.69,457.558"/>
    <path style="fill: #000000" d="M 1575.83 524.538 C 1573.84,523.022 1573.37,519.518 1574.89,517.53 C 1576.4,515.542 1579.91,515.071 1581.89,516.588 C 1583.88,518.104 1584.35,521.608 1582.84,523.596 C 1581.32,525.583 1577.82,526.054 1575.83,524.538z"/>
    <path style="fill: none; fill-opacity:0; stroke-width: 2; stroke: #000000" d="M 1575.83 524.538 C 1573.84,523.022 1573.37,519.518 1574.89,517.53 C 1576.4,515.542 1579.91,515.071 1581.89,516.588 C 1583.88,518.104 1584.35,521.608 1582.84,523.596 C 1581.32,525.583 1577.82,526.054 1575.83,524.538"/>
  </g>
  <g>
    <path style="fill: none; fill-opacity:0; stroke-width: 2; stroke: #000000" d="M 1481.27,295.16 A 37.0857,37.0857 0 0 0 1531.9,332.946"/>
    <path style="fill: #000000" d="M 1481.27 295.16 C 1483.76,295.384 1486.03,298.098 1485.8,300.588 C 1485.58,303.078 1482.86,305.344 1480.37,305.12 C 1477.88,304.896 1475.62,302.182 1475.84,299.692 C 1476.07,297.202 1478.78,294.936 1481.27,295.16z"/>
    <path style="fill: none; fill-opacity:0; stroke-width: 2; stroke: #000000" d="M 1481.27 295.16 C 1483.76,295.384 1486.03,298.098 1485.8,300.588 C 1485.58,303.078 1482.86,305.344 1480.37,305.12 C 1477.88,304.896 1475.62,302.182 1475.84,299.692 C 1476.07,297.202 1478.78,294.936 1481.27,295.16"/>
  </g>
  <text font-size="12.8" style="fill: #000000;text-anchor:start;font-family:sans-serif;font-style:normal;font-weight:normal" x="1494.17" y="284.094">
    <tspan x="1494.17" y="284.094">(1,N)</tspan>
  </text>
  <text font-size="12.8" style="fill: #000000;text-anchor:start;font-family:sans-serif;font-style:normal;font-weight:normal" x="1054.66" y="119.668">
    <tspan x="1054.66" y="119.668">(1,1)</tspan>
  </text>
  <text font-size="12.8" style="fill: #000000;text-anchor:start;font-family:sans-serif;font-style:normal;font-weight:normal" x="834.842" y="269.984">
    <tspan x="834.842" y="269.984">(1,1)</tspan>
  </text>
  <text font-size="12.8" style="fill: #000000;text-anchor:start;font-family:sans-serif;font-style:normal;font-weight:normal" x="943.288" y="141.588">
    <tspan x="943.288" y="141.588">(0,N)</tspan>
  </text>
  <text font-size="12.8" style="fill: #000000;text-anchor:start;font-family:sans-serif;font-style:normal;font-weight:normal" x="837.318" y="330.264">
    <tspan x="837.318" y="330.264">(1,1)</tspan>
  </text>
  <text font-size="12.8" style="fill: #000000;text-anchor:start;font-family:sans-serif;font-style:normal;font-weight:normal" x="839.308" y="474.452">
    <tspan x="839.308" y="474.452">(0,N)</tspan>
  </text>
  <text font-size="12.8" style="fill: #000000;text-anchor:start;font-family:sans-serif;font-style:normal;font-weight:normal" x="1180.44" y="315.748">
    <tspan x="1180.44" y="315.748">(1,N)</tspan>
  </text>
  <text font-size="12.8" style="fill: #000000;text-anchor:start;font-family:sans-serif;font-style:normal;font-weight:normal" x="1440.63" y="303.094">
    <tspan x="1440.63" y="303.094">(1,1)</tspan>
  </text>
  <text font-size="12.8" style="fill: #000000;text-anchor:start;font-family:sans-serif;font-style:normal;font-weight:normal" x="1534.53" y="343.87">
    <tspan x="1534.53" y="343.87">(0,1)</tspan>
  </text>
  <text font-size="12.8" style="fill: #000000;text-anchor:start;font-family:sans-serif;font-style:normal;font-weight:normal" x="1490.09" y="463.422">
    <tspan x="1490.09" y="463.422">(0,N)</tspan>
  </text>
  <g>
    <line style="fill: none; fill-opacity:0; stroke-width: 2; stroke: #000000" x1="834.21" y1="298.451" x2="673.722" y2="298.066"/>
    <ellipse style="fill: #ffffff" cx="677.62" cy="298.075" rx="3.89769" ry="3.89769"/>
    <ellipse style="fill: none; fill-opacity:0; stroke-width: 2; stroke: #000000" cx="677.62" cy="298.075" rx="3.89769" ry="3.89769"/>
    <text font-size="12.7998" style="fill: #000000;text-anchor:start;font-family:monospace;font-style:normal;font-weight:normal" x="655.29" y="287.958">Data inizio validità</text>
  </g>
  <g>
    <line style="fill: none; fill-opacity:0; stroke-width: 2; stroke: #000000" x1="834.112" y1="308.681" x2="758.638" y2="330.622"/>
    <ellipse style="fill: #ffffff" cx="762.605" cy="329.469" rx="4.1314" ry="4.1314"/>
    <ellipse style="fill: none; fill-opacity:0; stroke-width: 2; stroke: #000000" cx="762.605" cy="329.469" rx="4.1314" ry="4.1314"/>
    <text font-size="12.7998" style="fill: #000000;text-anchor:start;font-family:monospace;font-style:normal;font-weight:normal" x="657.498" y="318.898">Data fine validità</text>
  </g>
  <g>
    <line style="fill: none; fill-opacity:0; stroke-width: 2; stroke: #000000" x1="979.414" y1="120.748" x2="892.496" y2="105.437"/>
    <ellipse style="fill: #ffffff" cx="896.383" cy="106.122" rx="3.94728" ry="3.94728"/>
    <ellipse style="fill: none; fill-opacity:0; stroke-width: 2; stroke: #000000" cx="896.383" cy="106.122" rx="3.94728" ry="3.94728"/>
    <text font-size="12.7998" style="fill: #000000;text-anchor:start;font-family:monospace;font-style:normal;font-weight:normal" x="894.13" y="95.0776">Giorni</text>
  </g>
  <g>
    <line style="fill: none; fill-opacity:0; stroke-width: 2; stroke: #000000" x1="1544.9" y1="288.539" x2="1560.62" y2="273.956"/>
    <ellipse style="fill: #ffffff" cx="1558.64" cy="275.797" rx="2.70794" ry="2.70794"/>
    <ellipse style="fill: none; fill-opacity:0; stroke-width: 2; stroke: #000000" cx="1558.64" cy="275.797" rx="2.70794" ry="2.70794"/>
    <text font-size="12.7998" style="fill: #000000;text-anchor:start;font-family:monospace;font-style:normal;font-weight:normal" x="1565.64" y="278.198">Data Fine</text>
  </g>
</svg>
